<svg width="36" height="36" viewBox="0 0 36 36" fill="none" xmlns="http://www.w3.org/2000/svg">
<rect width="8" height="8" fill="white"/>
<path d="M9 0L17 8V0H9Z" fill="white"/>
<path d="M19 4.75V3.25C19 3.25 19.4639 2.26697 20 1.75C20.3391 1.42304 21 1 21 1C21 1 20.5777 2.36111 20.5 3.25C20.4489 3.83453 20.4489 4.16547 20.5 4.75C20.5777 5.63889 21 7 21 7C21 7 20.3391 6.57696 20 6.25C19.4639 5.73303 19 4.75 19 4.75Z" fill="white"/>
<path d="M1 22.75V21.25C1 21.25 1.46388 20.267 2 19.75C2.33907 19.423 3 19 3 19C3 19 2.57772 20.3611 2.5 21.25C2.44889 21.8345 2.44889 22.1655 2.5 22.75C2.57772 23.6389 3 25 3 25C3 25 2.33907 24.577 2 24.25C1.46388 23.733 1 22.75 1 22.75Z" fill="white"/>
<path d="M20 3L22 4L20 5" stroke="white" stroke-width="0.25"/>
<path d="M20 4H22" stroke="white" stroke-width="0.25"/>
<path d="M19 3L18 2V6L19 5V3Z" fill="white"/>
<path d="M1 21L0 20V24L1 23V21Z" fill="white"/>
<path d="M34.5 9.5V15.793L28.207 9.5H34.5Z" stroke="white"/>
<rect x="0.5" y="9.5" width="7" height="7" stroke="white"/>
<rect x="27.5" y="0.5" width="7" height="7" stroke="white"/>
<rect x="3" y="11" width="2" height="4" fill="white"/>
<rect x="6" y="12" width="2" height="4" transform="rotate(90 6 12)" fill="white"/>
<circle cx="4" cy="13" r="1.75" fill="white"/>
<rect x="9" y="9" width="2" height="8" fill="white"/>
<rect x="18" y="9" width="2" height="8" fill="white"/>
<rect x="11" y="10" width="1" height="6" fill="white"/>
<rect x="11" y="18" width="4" height="1" fill="white"/>
<rect x="11" y="25" width="4" height="1" fill="white"/>
<rect x="12" y="19" width="2" height="6" fill="white"/>
<rect x="20" y="18" width="4" height="8" fill="white"/>
</svg>
