<svg width="32" height="32" viewBox="0 0 32 32" fill="none" xmlns="http://www.w3.org/2000/svg">
<rect width="8" height="8" fill="white"/>
<path d="M8 0L16 8V0H8Z" fill="white"/>
<path d="M17 4.75V3.25C17 3.25 17.4639 2.26697 18 1.75C18.3391 1.42304 19 1 19 1C19 1 18.5777 2.36111 18.5 3.25C18.4489 3.83453 18.4489 4.16547 18.5 4.75C18.5777 5.63889 19 7 19 7C19 7 18.3391 6.57696 18 6.25C17.4639 5.73303 17 4.75 17 4.75Z" fill="white"/>
<path d="M1 20.75V19.25C1 19.25 1.46388 18.267 2 17.75C2.33907 17.423 3 17 3 17C3 17 2.57772 18.3611 2.5 19.25C2.44889 19.8345 2.44889 20.1655 2.5 20.75C2.57772 21.6389 3 23 3 23C3 23 2.33907 22.577 2 22.25C1.46388 21.733 1 20.75 1 20.75Z" fill="white"/>
<path d="M18 3L20 4L18 5" stroke="white" stroke-width="0.25"/>
<path d="M18 4H20" stroke="white" stroke-width="0.25"/>
<path d="M17 3L16 2V6L17 5V3Z" fill="white"/>
<path d="M1 19L0 18V22L1 21V19Z" fill="white"/>
<path d="M31.5 8.5V14.793L25.207 8.5H31.5Z" stroke="white"/>
<rect x="0.5" y="8.5" width="7" height="7" stroke="white"/>
<rect x="24.5" y="0.5" width="7" height="7" stroke="white"/>
<rect x="3" y="10" width="2" height="4" fill="white"/>
<rect x="6" y="11" width="2" height="4" transform="rotate(90 6 11)" fill="white"/>
<circle cx="4" cy="12" r="1.75" fill="white"/>
<rect x="8" y="8" width="2" height="8" fill="white"/>
<rect x="16" y="8" width="2" height="8" fill="white"/>
<rect x="10" y="9" width="1" height="6" fill="white"/>
<rect x="10" y="16" width="4" height="1" fill="white"/>
<rect x="10" y="23" width="4" height="1" fill="white"/>
<rect x="11" y="17" width="2" height="6" fill="white"/>
<rect x="18" y="16" width="4" height="8" fill="white"/>
</svg>
